<svg xmlns="http://www.w3.org/2000/svg" width="30.1" height="30.102" viewBox="0 0 30.1 30.102">
  <g id="social_pinterest" transform="translate(-168.4)">
    <path id="Path_17" data-name="Path 17" d="M168.9,22.1V8.1A7.6,7.6,0,0,1,176.5.5h13.9A7.6,7.6,0,0,1,198,8.1V22a7.6,7.6,0,0,1-7.6,7.6H176.5A7.45,7.45,0,0,1,168.9,22.1Z" fill="none" stroke="#953142" stroke-miterlimit="10" stroke-width="1"/>
    <path id="Path_18" data-name="Path 18" d="M182.4,18.3v.1c-.7,2.6-.7,3.1-1.4,4.3a9.062,9.062,0,0,1-1.1,1.6c0,.1-.1.1-.2.1s-.1-.1-.1-.2a9.064,9.064,0,0,1-.1-2.3c0-1,.2-1.4,1.5-6.9v-.2a3.851,3.851,0,0,1-.1-2.6c.6-1.9,2.7-2,3.1-.5.2,1-.4,2.2-.8,4.1-.4,1.5,1.4,2.6,3,1.5,1.4-1,2-3.5,1.9-5.3-.2-3.5-4-4.3-6.5-3.1-2.8,1.3-3.4,4.8-2.2,6.3.2.2.3.3.2.5a2.958,2.958,0,0,0-.2,1,.365.365,0,0,1-.5.2,2.73,2.73,0,0,1-1.2-.9,5.544,5.544,0,0,1,0-6.2,7.448,7.448,0,0,1,7.2-3.2,6.1,6.1,0,0,1,5.6,5,8.726,8.726,0,0,1-1.5,5.9c-1.8,2.3-4.8,2.4-6.1,1C182.6,18.6,182.5,18.4,182.4,18.3Z" fill="#953142" fill-rule="evenodd"/>
  </g>
</svg>
