<svg xmlns="http://www.w3.org/2000/svg" width="388.154" height="136.613" viewBox="0 0 388.154 136.613"><g transform="translate(12032.076 -4154.761)"><path d="M5175.133,902.569c27.958-25.876,74.779-16.137,107.376-14.775s40.524,1.434,50.821-2.663c1.479-6.645,20.938-15.856,57.748-4.314,12.324,1.9,34.219,2.635,34.219,2.635l7.473,15.48-3.983,5.546v4.881s-120.548,59.514-134.8,66.654-45.517,28.628-45.517,28.628l-73.336,7.3s-113.673-32.818-126.316-38.6,4.139-22.788,38.445-28.4S5147.174,928.445,5175.133,902.569Z" transform="translate(-17076.691 3279.437)" fill="#953142" opacity="0.602"/><g transform="translate(-13018 3686)"><circle cx="7" cy="7" r="7" transform="translate(1158 516)" fill="#953142"/><g transform="translate(1153 511)" fill="none" stroke="#953142" stroke-width="1"><circle cx="12" cy="12" r="12" stroke="none"/><circle cx="12" cy="12" r="11.5" fill="none"/></g></g></g></svg>