<svg xmlns="http://www.w3.org/2000/svg" width="69.686" height="71.543" viewBox="0 0 69.686 71.543"><g transform="translate(11599.261 -4097.501)"><g transform="translate(-16746 5121)"><circle cx="7" cy="7" r="7" transform="translate(5175 -1002)" fill="#953142"/><g transform="translate(5170 -1007)" fill="none" stroke="#953142" stroke-width="1"><circle cx="12" cy="12" r="12" stroke="none"/><circle cx="12" cy="12" r="11.5" fill="none"/></g></g><path d="M-10292.153,5562l12.131,3.688-.625,4.012,8.03,2.234,5.813-37.221h.927v-2.557l11.679-6.659,15.811,4.264-.7,5.963,4.513,1.358-1.684,13.182h-.924l-2.757-.832-15.036,7.037-6.249,40.571-3.612-.937v-3.47l-10.264-2.873v-1.713l-9.346-3.457.582-4.456-20.4-4.723.738-5.713Z" transform="translate(-1295 -1428)" fill="#953142" opacity="0.6"/></g></svg>