<svg xmlns="http://www.w3.org/2000/svg" xmlns:xlink="http://www.w3.org/1999/xlink" width="1920" height="1080" viewBox="0 0 1920 1080"><defs><clipPath id="b"><rect width="1920" height="1080"/></clipPath></defs><g id="a" clip-path="url(#b)"><path d="M5175.133,902.569c27.958-25.876,74.779-16.137,107.376-14.775s40.524,1.434,50.821-2.663c1.479-6.645,20.938-15.856,57.748-4.314,12.324,1.9,34.219,2.635,34.219,2.635l7.473,15.48-3.983,5.546v4.881s-120.548,59.514-134.8,66.654-45.517,28.628-45.517,28.628l-73.336,7.3s-113.673-32.818-126.316-38.6,4.139-22.788,38.445-28.4S5147.174,928.445,5175.133,902.569Z" transform="translate(-3958.692 -232.563)" fill="#953142" opacity="0.602"/><path d="M-1831.185,5739.467l-28.639,42.181,1.621,17.824s58.234,16.652,123.639,6.936c11.773-19.562,29.844-61.569,29.844-61.569l-1.853-3.822Z" transform="translate(2232 -4975)" fill="#953142" opacity="0.6"/><path d="M-1861.6,5704.77l4.072,28.008-16.5,20.905-24.825,12.761-1.261-9.2-11.739-1.1-3.725,4.148-77.517-6.613-3.105-22.122s-2.434-14.509,38.878-22.827c29.7,2.606,58.469,6.461,58.469,6.461l2.8-2.759,4.312-1.716h12.75l10.024-8.841Z" transform="translate(2232 -4975)" fill="#953142" opacity="0.6"/><path d="M-946.411,5608.048l-3.549-15.264,5.088-57.536h9.35l1.311-4.733,2.569-3.378,18.157.932,2.841,9.989h5.465l4.848,14.968-4.848,55.022Z" transform="translate(2232 -4975)" fill="#953142" opacity="0.6"/><path d="M-1293.338,5481.817l43.311-1.778-.225-58.277-.608-3.752-2.1-1.795h-24.388l-2.721,3.443h-8.525l-3.526,5.1-.021,48.728h-1.9Z" transform="translate(2232 -4975)" fill="#953142" opacity="0.6"/><circle cx="7" cy="7" r="7" transform="translate(280 746)" fill="#953142"/><g transform="translate(275 741)" fill="none" stroke="#953142" stroke-width="1"><circle cx="12" cy="12" r="12" stroke="none"/><circle cx="12" cy="12" r="11.5" fill="none"/></g><circle cx="7" cy="7" r="7" transform="translate(439 782)" fill="#953142"/><g transform="translate(434 777)" fill="none" stroke="#953142" stroke-width="1"><circle cx="12" cy="12" r="12" stroke="none"/><circle cx="12" cy="12" r="11.5" fill="none"/></g><circle cx="7" cy="7" r="7" transform="translate(1303 579)" fill="#953142"/><g transform="translate(1298 574)" fill="none" stroke="#953142" stroke-width="1"><circle cx="12" cy="12" r="12" stroke="none"/><circle cx="12" cy="12" r="11.5" fill="none"/></g><circle cx="7" cy="7" r="7" transform="translate(1158 516)" fill="#953142"/><g transform="translate(1153 511)" fill="none" stroke="#953142" stroke-width="1"><circle cx="12" cy="12" r="12" stroke="none"/><circle cx="12" cy="12" r="11.5" fill="none"/></g><g transform="translate(100 174)"><circle cx="7" cy="7" r="7" transform="translate(1158 516)" fill="#953142"/><g transform="translate(1153 511)" fill="none" stroke="#953142" stroke-width="1"><circle cx="12" cy="12" r="12" stroke="none"/><circle cx="12" cy="12" r="11.5" fill="none"/></g></g><g transform="translate(-50 -39)"><circle cx="7" cy="7" r="7" transform="translate(1003 513)" fill="#953142"/><g transform="translate(998 508)" fill="none" stroke="#953142" stroke-width="1"><circle cx="12" cy="12" r="12" stroke="none"/><circle cx="12" cy="12" r="11.5" fill="none"/></g></g><circle cx="7" cy="7" r="7" transform="translate(1215 289)" fill="#953142"/><g transform="translate(1210 284)" fill="none" stroke="#953142" stroke-width="1"><circle cx="12" cy="12" r="12" stroke="none"/><circle cx="12" cy="12" r="11.5" fill="none"/></g><circle cx="7" cy="7" r="7" transform="translate(1142 270)" fill="#953142"/><g transform="translate(1137 265)" fill="none" stroke="#953142" stroke-width="1"><circle cx="12" cy="12" r="12" stroke="none"/><circle cx="12" cy="12" r="11.5" fill="none"/></g><circle cx="7" cy="7" r="7" transform="translate(1158 310)" fill="#953142"/><g transform="translate(1153 305)" fill="none" stroke="#953142" stroke-width="1"><circle cx="12" cy="12" r="12" stroke="none"/><circle cx="12" cy="12" r="11.5" fill="none"/></g><g transform="translate(-3628 1609)"><circle cx="7" cy="7" r="7" transform="translate(5175 -1002)" fill="#953142"/><g transform="translate(5170 -1007)" fill="none" stroke="#953142" stroke-width="1"><circle cx="12" cy="12" r="12" stroke="none"/><circle cx="12" cy="12" r="11.5" fill="none"/></g></g><path d="M-10676.833,5488.706l35.294-2.737,3.383-37.162-3.383-5.066h-31.987Z" transform="translate(11823 -4940)" fill="#953142" opacity="0.6"/><path d="M-10292.153,5562l12.131,3.688-.625,4.012,8.03,2.234,5.813-37.221h.927v-2.557l11.679-6.659,15.811,4.264-.7,5.963,4.513,1.358-1.684,13.182h-.924l-2.757-.832-15.036,7.037-6.249,40.571-3.612-.937v-3.47l-10.264-2.873v-1.713l-9.346-3.457.582-4.456-20.4-4.723.738-5.713Z" transform="translate(11823 -4940)" fill="#953142" opacity="0.6"/></g></svg>