<svg xmlns="http://www.w3.org/2000/svg" width="46.661" height="92.646" viewBox="0 0 46.661 92.646">
  <g id="about_investment" transform="translate(1.5 1.5)">
    <ellipse id="Ellipse_54" data-name="Ellipse 54" cx="21.432" cy="21.432" rx="21.432" ry="21.432" transform="translate(0.41 46.782)" fill="none" stroke="#953142" stroke-linecap="round" stroke-linejoin="round" stroke-miterlimit="10" stroke-width="3"/>
    <g id="Group_10709" data-name="Group 10709" transform="translate(0 24.94)">
      <path id="Path_14148" data-name="Path 14148" d="M2401.639,1343.239h0A16.233,16.233,0,0,1,2385.4,1327h0a16.247,16.247,0,0,1,16.239,16.239Z" transform="translate(-2385.4 -1327)" fill="none" stroke="#953142" stroke-linecap="round" stroke-linejoin="round" stroke-miterlimit="10" stroke-width="3"/>
      <line id="Line_7567" data-name="Line 7567" x2="5.603" y2="5.603" transform="translate(16.239 16.239)" fill="none" stroke="#953142" stroke-linecap="round" stroke-linejoin="round" stroke-miterlimit="10" stroke-width="3"/>
    </g>
    <g id="Group_10710" data-name="Group 10710" transform="translate(21.842 17.97)">
      <path id="Path_14149" data-name="Path 14149" d="M2505.8,1312.639h0a16.233,16.233,0,0,0,16.239-16.239h0a16.233,16.233,0,0,0-16.239,16.239Z" transform="translate(-2500.22 -1296.4)" fill="none" stroke="#953142" stroke-linecap="round" stroke-linejoin="round" stroke-miterlimit="10" stroke-width="3"/>
      <line id="Line_7568" data-name="Line 7568" x1="5.58" y2="5.58" transform="translate(0 16.239)" fill="none" stroke="#953142" stroke-linecap="round" stroke-linejoin="round" stroke-miterlimit="10" stroke-width="3"/>
    </g>
    <g id="Group_10711" data-name="Group 10711" transform="translate(17.076)">
      <path id="Path_14150" data-name="Path 14150" d="M2465.141,1240.458h0a16.248,16.248,0,0,0,0-22.958h0a16.207,16.207,0,0,0,0,22.958Z" transform="translate(-2460.375 -1217.5)" fill="none" stroke="#953142" stroke-linecap="round" stroke-linejoin="round" stroke-miterlimit="10" stroke-width="3"/>
      <line id="Line_7569" data-name="Line 7569" y2="23.823" transform="translate(4.766 22.958)" fill="none" stroke="#953142" stroke-linecap="round" stroke-linejoin="round" stroke-miterlimit="10" stroke-width="3"/>
    </g>
    <g id="Group_10712" data-name="Group 10712" transform="translate(10.158 60.196)">
      <path id="Path_14151" data-name="Path 14151" d="M2433.917,1489.954h-1v4.578a1.9,1.9,0,0,1-.41,1.344,1.485,1.485,0,0,1-2.118-.023,1.987,1.987,0,0,1-.387-1.321v-10.978a1.495,1.495,0,0,1,1.754-1.754h4.692a11.754,11.754,0,0,1,1.663.091,3.779,3.779,0,0,1,1.252.342,3.511,3.511,0,0,1,1.185.8,3.148,3.148,0,0,1,.774,1.23,4.608,4.608,0,0,1,.273,1.48,3.5,3.5,0,0,1-.911,2.551,4.989,4.989,0,0,1-2.733,1.344,5.49,5.49,0,0,1,1.48,1.207,10.306,10.306,0,0,1,1.253,1.708,12.866,12.866,0,0,1,.865,1.617,3.057,3.057,0,0,1,.3,1,1.189,1.189,0,0,1-.182.569,1.046,1.046,0,0,1-.5.433,1.5,1.5,0,0,1-.729.159,1.388,1.388,0,0,1-.82-.228,2.256,2.256,0,0,1-.569-.569c-.159-.228-.365-.569-.638-1.025l-1.162-1.936a10.681,10.681,0,0,0-1.116-1.617,2.691,2.691,0,0,0-1-.751A2.216,2.216,0,0,0,2433.917,1489.954Zm1.663-5.99h-2.665v3.917h2.6a7.685,7.685,0,0,0,1.754-.182,1.984,1.984,0,0,0,1.093-.615,1.755,1.755,0,0,0,.364-1.184,1.82,1.82,0,0,0-.3-1.048,1.937,1.937,0,0,0-.843-.683A6.418,6.418,0,0,0,2435.58,1483.964Z" transform="translate(-2430 -1481.8)" fill="#953142"/>
      <path id="Path_14152" data-name="Path 14152" d="M2494.374,1499.5v.319a5.622,5.622,0,0,1,1.549-1.366,3.714,3.714,0,0,1,1.822-.433,4.121,4.121,0,0,1,2.255.638,4.629,4.629,0,0,1,1.64,1.845,6.37,6.37,0,0,1,.592,2.893,7.088,7.088,0,0,1-.342,2.255,5.077,5.077,0,0,1-.957,1.731,4.092,4.092,0,0,1-1.435,1.07,4.206,4.206,0,0,1-1.777.365,3.834,3.834,0,0,1-1.913-.456,5.368,5.368,0,0,1-1.48-1.344V1511c0,1.162-.433,1.754-1.275,1.754a1.07,1.07,0,0,1-1-.456,2.889,2.889,0,0,1-.25-1.321V1499.5a1.661,1.661,0,0,1,.341-1.139,1.153,1.153,0,0,1,.911-.365,1.169,1.169,0,0,1,.911.387A1.383,1.383,0,0,1,2494.374,1499.5Zm5.216,3.849a4.707,4.707,0,0,0-.319-1.8,2.567,2.567,0,0,0-.888-1.161,2.113,2.113,0,0,0-1.252-.41,2.375,2.375,0,0,0-1.845.865,3.79,3.79,0,0,0-.752,2.551,3.65,3.65,0,0,0,.752,2.46,2.339,2.339,0,0,0,1.867.888,2.24,2.24,0,0,0,1.23-.387,2.519,2.519,0,0,0,.911-1.161A4.555,4.555,0,0,0,2499.589,1503.352Z" transform="translate(-2477.725 -1494.31)" fill="#953142"/>
    </g>
    <path id="Path_14153" data-name="Path 14153" d="M2481.3,1447.5a15.8,15.8,0,0,1,11.206,4.646" transform="translate(-2459.458 -1395.116)" fill="none" stroke="#953142" stroke-linecap="round" stroke-linejoin="round" stroke-miterlimit="10" stroke-width="3"/>
  </g>
</svg>
