<svg xmlns="http://www.w3.org/2000/svg" width="61.306" height="70.348" viewBox="0 0 61.306 70.348">
  <g id="about_security" transform="translate(1.5 1.5)">
    <path id="Path_14136" data-name="Path 14136" d="M34.153,666.948h0A29.151,29.151,0,0,1,5,637.795v-26.42L34.153,599.6l29.153,11.775v26.42A29.151,29.151,0,0,1,34.153,666.948Z" transform="translate(-5 -599.6)" fill="none" stroke="#953142" stroke-linecap="round" stroke-linejoin="round" stroke-miterlimit="10" stroke-width="3"/>
    <g id="Group_10705" data-name="Group 10705" transform="translate(11.046 28.151)">
      <path id="Path_14137" data-name="Path 14137" d="M53.5,732.151a1.311,1.311,0,0,1,.569-1.07l2.779-2.278a8.577,8.577,0,0,0,.774-.683,5.714,5.714,0,0,0,.524-.569,2.151,2.151,0,0,0,.3-.547,1.572,1.572,0,0,0,.091-.569,1.221,1.221,0,0,0-.364-.957,1.467,1.467,0,0,0-.957-.319,1.565,1.565,0,0,0-.82.2,3.149,3.149,0,0,0-.774.661,1.659,1.659,0,0,1-.3.205.981.981,0,0,1-1.116-.205.987.987,0,0,1-.3-.683,1.1,1.1,0,0,1,.251-.683,4.487,4.487,0,0,1,1.321-1.071,4.127,4.127,0,0,1,1.868-.387,3.954,3.954,0,0,1,1.389.228,2.932,2.932,0,0,1,1.07.615,2.629,2.629,0,0,1,.683.957,3.152,3.152,0,0,1,.251,1.253v.023a3.249,3.249,0,0,1-.159,1.093,3.884,3.884,0,0,1-.478.911,5.518,5.518,0,0,1-.8.865c-.319.3-.706.592-1.139.934l-1.594,1.23h3.416a.934.934,0,1,1,0,1.868h-5.33a1.292,1.292,0,0,1-.843-.273A.93.93,0,0,1,53.5,732.151Z" transform="translate(-53.5 -723.2)" fill="#953142"/>
      <path id="Path_14138" data-name="Path 14138" d="M96.3,731.135H92.27a1.091,1.091,0,0,1-.752-.273.934.934,0,0,1-.319-.706,1.356,1.356,0,0,1,.137-.615,3.36,3.36,0,0,1,.364-.569l4.259-4.942a2.539,2.539,0,0,1,.592-.547,1.409,1.409,0,0,1,.752-.182,1.011,1.011,0,0,1,1.025,1.025v5.056h.524a.841.841,0,0,1,.615.251.824.824,0,0,1,.251.615.88.88,0,0,1-.251.615.922.922,0,0,1-.615.25h-.524V732.3a.962.962,0,0,1-.3.729,1.045,1.045,0,0,1-1.458,0,.962.962,0,0,1-.3-.729v-1.162Zm0-1.754v-3.052l-2.6,3.052Z" transform="translate(-82.614 -723.277)" fill="#953142"/>
      <path id="Path_14139" data-name="Path 14139" d="M136.7,724.593a1.125,1.125,0,0,1,.319-.774.968.968,0,0,1,.774-.319,1.125,1.125,0,0,1,.774.319,1.047,1.047,0,0,1,.319.774v2.893h3.986v-2.893a1.125,1.125,0,0,1,.319-.774.968.968,0,0,1,.774-.319,1.125,1.125,0,0,1,.774.319,1.047,1.047,0,0,1,.319.774v7.812a1.033,1.033,0,0,1-.319.752,1.047,1.047,0,0,1-.774.319,1.125,1.125,0,0,1-.774-.319,1.033,1.033,0,0,1-.319-.752v-2.938h-3.986v2.938a1.033,1.033,0,0,1-.319.752,1.047,1.047,0,0,1-.774.319,1.125,1.125,0,0,1-.774-.319,1.033,1.033,0,0,1-.319-.752Z" transform="translate(-117.751 -723.432)" fill="#953142"/>
      <path id="Path_14140" data-name="Path 14140" d="M183.168,725.07a1.033,1.033,0,0,1,.319-.752,1.047,1.047,0,0,1,.774-.319h3.371a3.834,3.834,0,0,1,2.847,1,2.988,2.988,0,0,1,.843,2.232v.023a2.951,2.951,0,0,1-1.959,2.984l1.5,1.822a1.856,1.856,0,0,1,.251.387.924.924,0,0,1,.091.433.947.947,0,0,1-.319.729,1.06,1.06,0,0,1-.706.273,1.031,1.031,0,0,1-.615-.159,2.557,2.557,0,0,1-.456-.41l-2.1-2.665h-1.731v2.141a1.033,1.033,0,0,1-.319.752,1.047,1.047,0,0,1-.774.319,1.125,1.125,0,0,1-.774-.319,1.033,1.033,0,0,1-.319-.752V725.07Zm4.327,3.69a1.849,1.849,0,0,0,1.23-.387,1.323,1.323,0,0,0,.433-1v-.023a1.265,1.265,0,0,0-.456-1.048,2,2,0,0,0-1.253-.342h-2.141v2.824H187.5Z" transform="translate(-153.583 -723.818)" fill="#953142"/>
    </g>
  </g>
</svg>
