<svg xmlns="http://www.w3.org/2000/svg" width="73.337" height="70.883" viewBox="0 0 73.337 70.883">
  <g id="about_acess" transform="translate(1.5 1.5)">
    <path id="Path_14141" data-name="Path 14141" d="M899.445,649.282l-13.169,4.473A6.261,6.261,0,0,1,878,647.829V600.084a6.253,6.253,0,0,1,4.243-5.925l17.3-5.887a4.525,4.525,0,0,1,5.983,4.281V640.8A8.97,8.97,0,0,1,899.445,649.282Z" transform="translate(-835.186 -586.246)" fill="none" stroke="#953142" stroke-linecap="round" stroke-linejoin="round" stroke-miterlimit="10" stroke-width="3"/>
    <path id="Path_14142" data-name="Path 14142" d="M828.681,584.969a6.273,6.273,0,0,0-6.269-6.269H789.269A6.273,6.273,0,0,0,783,584.969V591.7" transform="translate(-758.344 -578.7)" fill="none" stroke="#953142" stroke-linecap="round" stroke-linejoin="round" stroke-miterlimit="10" stroke-width="3"/>
    <path id="Path_14143" data-name="Path 14143" d="M783,829.7v6.728a6.273,6.273,0,0,0,6.269,6.269h11.889" transform="translate(-758.344 -781.725)" fill="none" stroke="#953142" stroke-linecap="round" stroke-linejoin="round" stroke-miterlimit="10" stroke-width="3"/>
    <path id="Path_14144" data-name="Path 14144" d="M752.5,675.3l12.022,12.022L752.5,699.345" transform="translate(-733.673 -656.836)" fill="none" stroke="#953142" stroke-linecap="round" stroke-linejoin="round" stroke-miterlimit="10" stroke-width="3"/>
    <line id="Line_7563" data-name="Line 7563" x2="30.849" transform="translate(0 30.486)" fill="none" stroke="#953142" stroke-linecap="round" stroke-linejoin="round" stroke-miterlimit="10" stroke-width="3"/>
  </g>
</svg>
