<svg xmlns="http://www.w3.org/2000/svg" width="79.344" height="70.641" viewBox="0 0 79.344 70.641">
  <g id="about_green" transform="translate(1.5 1.5)">
    <g id="Group_10717" data-name="Group 10717" transform="translate(1.005 0)">
      <g id="Group_10714" data-name="Group 10714" transform="translate(52.545)">
        <path id="Path_14154" data-name="Path 14154" d="M1859.267,12.076c0-.121.02-.261.02-.4a6.774,6.774,0,1,0-13.548,0,6.076,6.076,0,0,0,.04.623,9.5,9.5,0,1,0,17.95,6.111A6.9,6.9,0,0,0,1859.267,12.076Z" transform="translate(-1841.9 -4.9)" fill="none" stroke="#953142" stroke-linecap="round" stroke-linejoin="round" stroke-miterlimit="10" stroke-width="3"/>
        <line id="Line_7570" data-name="Line 7570" y2="22.815" transform="translate(10.855 6.654)" fill="none" stroke="#953142" stroke-linecap="round" stroke-linejoin="round" stroke-miterlimit="10" stroke-width="3"/>
        <path id="Path_14155" data-name="Path 14155" d="M1872.7,61.421l4.664,3.96,4.663-4.181" transform="translate(-1866.509 -49.883)" fill="none" stroke="#953142" stroke-linecap="round" stroke-linejoin="round" stroke-miterlimit="10" stroke-width="3"/>
      </g>
      <g id="Group_10715" data-name="Group 10715">
        <path id="Path_14156" data-name="Path 14156" d="M1597.867,12.076c0-.121.02-.261.02-.4a6.774,6.774,0,1,0-13.548,0,6.111,6.111,0,0,0,.04.623,9.5,9.5,0,1,0,17.95,6.111A6.845,6.845,0,0,0,1597.867,12.076Z" transform="translate(-1580.5 -4.9)" fill="none" stroke="#953142" stroke-linecap="round" stroke-linejoin="round" stroke-miterlimit="10" stroke-width="3"/>
        <line id="Line_7571" data-name="Line 7571" y2="22.815" transform="translate(10.875 6.654)" fill="none" stroke="#953142" stroke-linecap="round" stroke-linejoin="round" stroke-miterlimit="10" stroke-width="3"/>
        <path id="Path_14157" data-name="Path 14157" d="M1611.4,61.421l4.664,3.96,4.643-4.181" transform="translate(-1605.189 -49.883)" fill="none" stroke="#953142" stroke-linecap="round" stroke-linejoin="round" stroke-miterlimit="10" stroke-width="3"/>
      </g>
      <g id="Group_10716" data-name="Group 10716" transform="translate(26.272)">
        <path id="Path_14158" data-name="Path 14158" d="M1728.567,12.076c0-.121.02-.261.02-.4a6.774,6.774,0,1,0-13.548,0,6.111,6.111,0,0,0,.04.623,9.5,9.5,0,1,0,17.95,6.111A6.845,6.845,0,0,0,1728.567,12.076Z" transform="translate(-1711.2 -4.9)" fill="none" stroke="#953142" stroke-linecap="round" stroke-linejoin="round" stroke-miterlimit="10" stroke-width="3"/>
        <line id="Line_7572" data-name="Line 7572" y2="22.815" transform="translate(10.855 6.654)" fill="none" stroke="#953142" stroke-linecap="round" stroke-linejoin="round" stroke-miterlimit="10" stroke-width="3"/>
        <path id="Path_14159" data-name="Path 14159" d="M1742.1,61.421l4.643,3.96,4.663-4.181" transform="translate(-1735.889 -49.883)" fill="none" stroke="#953142" stroke-linecap="round" stroke-linejoin="round" stroke-miterlimit="10" stroke-width="3"/>
      </g>
    </g>
    <g id="Group_10718" data-name="Group 10718" transform="translate(0 29.468)">
      <path id="Path_14160" data-name="Path 14160" d="M1651.844,151.5a38.172,38.172,0,1,1-76.344,0Z" transform="translate(-1575.5 -151.5)" fill="none" stroke="#953142" stroke-linecap="round" stroke-linejoin="round" stroke-miterlimit="10" stroke-width="3"/>
      <path id="Path_14161" data-name="Path 14161" d="M1799.2,208.193h17.146A38.139,38.139,0,0,0,1825.9,189.8h-23.76a4.933,4.933,0,0,0-4.925,4.925h0a4.916,4.916,0,0,0,1.608,3.638,4.927,4.927,0,0,0-4.523,4.9h0A4.89,4.89,0,0,0,1799.2,208.193Z" transform="translate(-1750.318 -182.101)" fill="none" stroke="#953142" stroke-linecap="round" stroke-linejoin="round" stroke-miterlimit="10" stroke-width="3"/>
      <path id="Path_14162" data-name="Path 14162" d="M1711.708,309.84a37.655,37.655,0,0,0,13.508-2.472,19.42,19.42,0,0,0-27.016,0A37.654,37.654,0,0,0,1711.708,309.84Z" transform="translate(-1673.536 -271.668)" fill="none" stroke="#953142" stroke-miterlimit="10" stroke-width="3"/>
      <path id="Path_14163" data-name="Path 14163" d="M1594.151,214.871h1.95a6.108,6.108,0,0,0,6.111-6.111h0a6.132,6.132,0,0,0-2.633-5.025h.744a5.468,5.468,0,1,0,0-10.935H1580A38.241,38.241,0,0,0,1594.151,214.871Z" transform="translate(-1579.095 -184.498)" fill="none" stroke="#953142" stroke-linecap="round" stroke-linejoin="round" stroke-miterlimit="10" stroke-width="3"/>
    </g>
  </g>
</svg>
