<svg xmlns="http://www.w3.org/2000/svg" width="49" height="49" viewBox="0 0 49 49">
  <g id="btn_phone" transform="translate(-1408 167)">
    <rect id="Rectangle_2106" data-name="Rectangle 2106" width="49" height="49" transform="translate(1408 -167)" fill="none"/>
    <path id="Path_5911" data-name="Path 5911" d="M0,8.44A10.312,10.312,0,0,1,3.042,1.462C4.4.058,6.17-.091,7.957.036A2.065,2.065,0,0,1,9.212,1.185Q10.9,4.919,12.4,8.716a1.884,1.884,0,0,1-.149,1.511A17.729,17.729,0,0,1,10.105,13.1a1.637,1.637,0,0,0-.191,2.276,25.061,25.061,0,0,0,12.51,10.574,1.488,1.488,0,0,0,1.893-.447c.894-1.106,1.83-2.17,2.681-3.3a1.537,1.537,0,0,1,2.021-.66c2.574,1.191,5.148,2.383,7.659,3.681a1.892,1.892,0,0,1,.638,1.51,7.845,7.845,0,0,1-6.51,7.467,12.724,12.724,0,0,1-6.063-.362c-8.786-2.319-15.4-7.553-20.488-14.956C2.553,16.418.894,13.95.319,10.95.149,10.121.106,9.27,0,8.44Z" transform="translate(1418.246 -163) rotate(13)"/>
  </g>
</svg>
