<svg xmlns="http://www.w3.org/2000/svg" width="148.449" height="31.82" viewBox="0 0 148.449 31.82">
  <g id="close_btn_text" transform="translate(-1647.371 -155)">
    <g id="Group_226" data-name="Group 226" transform="translate(-257 2766)">
      <rect id="Rectangle_179" data-name="Rectangle 179" width="40" height="5" rx="2.5" transform="translate(2024.536 -2611) rotate(45)" fill="#fff"/>
      <rect id="Rectangle_183" data-name="Rectangle 183" width="40" height="5" rx="2.5" transform="translate(2052.82 -2607.464) rotate(135)" fill="#fff"/>
    </g>
    <path id="Path_14201" data-name="Path 14201" d="M-87.812.29c3.77,0,6.844-1.885,8.091-4.408h-.667A7.25,7.25,0,0,1-86.942-.609c-4.9,0-8.12-3.654-8.12-9.57,0-5.858,3.19-9.512,8.178-9.512,3.741,0,6.322,2,6.322,4.466h.638c0-2.9-3.335-5.365-7.946-5.365A10.4,10.4,0,0,0-98.629-10.15C-98.629-4.147-93.873.29-87.812.29Zm16.3-.87V-20.3h-3.451V0h13.92V-.58Zm21.837.87a10.351,10.351,0,0,0,10.7-10.44,10.351,10.351,0,0,0-10.7-10.44,10.334,10.334,0,0,0-10.7,10.44A10.334,10.334,0,0,0-49.677.29Zm0-.58c-4.321,0-7.134-3.915-7.134-9.86s2.813-9.86,7.134-9.86c4.292,0,7.134,3.915,7.134,9.86S-45.385-.29-49.677-.29Zm21.75.58c4.466,0,7.6-2.32,7.6-5.771,0-3.538-3.248-4.814-6.554-6.09-2.784-1.073-5.539-2.2-5.539-4.611,0-2.117,2.175-3.712,5.1-3.712,3.161,0,5.568,1.943,5.568,4.611h.638c0-3.045-2.929-5.307-6.728-5.307-4.176,0-7.279,2.32-7.279,5.713,0,3.654,3.538,5.075,6.525,6.293,2.9,1.189,5.452,2.262,5.452,4.553,0,2.117-2.233,3.6-5.336,3.6-3.6,0-6.38-2.088-6.38-4.9H-35.5C-35.5-2.146-32.132.29-27.927.29Zm15.776-.87v-9.425h8.584v-.58h-8.584V-19.72h10.9v-.58H-15.6V0H-.957V-.58Z" transform="translate(1746 181)" fill="#fff"/>
  </g>
</svg>
