<svg xmlns="http://www.w3.org/2000/svg" width="246" height="68.661" viewBox="0 0 246 68.661"><g transform="translate(-119 -1673.039)"><text transform="translate(211 1712)" fill="#953142" font-size="18" font-family="Gotham-Bold, Gotham" font-weight="700" letter-spacing="0.06em"><tspan x="0" y="0">VIRTUAL TOUR</tspan></text><g transform="translate(119 1673.039)"><path d="M15.02,57.3C6.517,58.838,1,61.461,1,64.445c0,4.7,14.02,8.593,31.2,8.593,17.276,0,31.2-3.8,31.2-8.593,0-2.985-5.517-5.608-14.02-7.145" transform="translate(0 -5.377)" fill="none" stroke="#953142" stroke-linecap="round" stroke-linejoin="round" stroke-miterlimit="10" stroke-width="2"/><g transform="translate(18.457 1)"><circle cx="6.422" cy="6.422" r="6.422" transform="translate(7.326)" fill="none" stroke="#953142" stroke-linecap="round" stroke-linejoin="round" stroke-miterlimit="10" stroke-width="2"/><path d="M40.018,15.5a7.757,7.757,0,0,1-11.939,0C23.466,17.761,20.3,20.565,20.3,25.992v9.226a3.2,3.2,0,0,0,3.166,3.166h1.357a1.992,1.992,0,0,0,.724-.09V56.564a3.918,3.918,0,0,0,3.889,3.889h0a3.918,3.918,0,0,0,3.889-3.889V44.082c.271,0,.543.09.814.09a2.5,2.5,0,0,0,.814-.09V56.564a3.889,3.889,0,0,0,7.779,0V38.293a1.763,1.763,0,0,0,.724.09h1.357a3.2,3.2,0,0,0,3.166-3.166V25.992C47.8,20.565,44.631,17.761,40.018,15.5Z" transform="translate(-20.3 -2.385)" fill="none" stroke="#953142" stroke-linecap="round" stroke-linejoin="round" stroke-miterlimit="10" stroke-width="2"/></g></g></g></svg>