<svg xmlns="http://www.w3.org/2000/svg" width="55.699" height="55.311" viewBox="0 0 55.699 55.311"><g transform="translate(0 0.5)"><line x2="55.699" transform="translate(0 54.137)" fill="none" stroke="#953142" stroke-miterlimit="10" stroke-width="1"/><rect width="2.95" height="2.95" transform="translate(8.676 3.123)" fill="#953142"/><rect width="2.95" height="2.95" transform="translate(14.228 3.123)" fill="#953142"/><rect width="2.95" height="2.95" transform="translate(19.781 3.123)" fill="#953142"/><rect width="2.95" height="2.95" transform="translate(25.16 3.123)" fill="#953142"/><rect width="2.95" height="2.95" transform="translate(8.676 8.502)" fill="#953142"/><rect width="2.95" height="2.95" transform="translate(14.228 8.502)" fill="#953142"/><rect width="2.95" height="2.95" transform="translate(19.781 8.502)" fill="#953142"/><rect width="2.95" height="2.95" transform="translate(25.16 8.502)" fill="#953142"/><rect width="2.95" height="2.95" transform="translate(8.676 14.055)" fill="#953142"/><rect width="2.95" height="2.95" transform="translate(14.228 14.055)" fill="#953142"/><rect width="2.95" height="2.95" transform="translate(19.781 14.055)" fill="#953142"/><rect width="2.95" height="2.95" transform="translate(8.676 19.607)" fill="#953142"/><rect width="2.95" height="2.95" transform="translate(14.228 19.607)" fill="#953142"/><rect width="2.95" height="2.95" transform="translate(19.781 19.607)" fill="#953142"/><rect width="2.95" height="2.95" transform="translate(8.676 25.16)" fill="#953142"/><rect width="2.95" height="2.95" transform="translate(14.228 25.16)" fill="#953142"/><rect width="2.95" height="2.95" transform="translate(19.781 25.16)" fill="#953142"/><rect width="2.95" height="2.95" transform="translate(8.676 30.539)" fill="#953142"/><rect width="2.95" height="2.95" transform="translate(14.228 30.539)" fill="#953142"/><rect width="2.95" height="2.95" transform="translate(19.781 30.539)" fill="#953142"/><rect width="2.95" height="2.95" transform="translate(8.676 36.092)" fill="#953142"/><rect width="2.95" height="2.95" transform="translate(14.228 36.092)" fill="#953142"/><rect width="2.95" height="2.95" transform="translate(19.781 36.092)" fill="#953142"/><rect width="2.95" height="2.95" transform="translate(8.676 41.644)" fill="#953142"/><rect width="2.95" height="2.95" transform="translate(29.151 19.607)" fill="#953142"/><rect width="2.95" height="2.95" transform="translate(34.703 19.607)" fill="#953142"/><rect width="2.95" height="2.95" transform="translate(40.256 19.607)" fill="#953142"/><rect width="2.95" height="2.95" transform="translate(29.151 25.16)" fill="#953142"/><rect width="2.95" height="2.95" transform="translate(34.703 25.16)" fill="#953142"/><rect width="2.95" height="2.95" transform="translate(40.256 25.16)" fill="#953142"/><rect width="2.95" height="2.95" transform="translate(29.151 30.539)" fill="#953142"/><rect width="2.95" height="2.95" transform="translate(34.703 30.539)" fill="#953142"/><rect width="2.95" height="2.95" transform="translate(40.256 30.539)" fill="#953142"/><rect width="2.95" height="2.95" transform="translate(29.151 36.092)" fill="#953142"/><rect width="2.95" height="2.95" transform="translate(34.703 36.092)" fill="#953142"/><rect width="2.95" height="2.95" transform="translate(40.256 36.092)" fill="#953142"/><rect width="2.95" height="2.95" transform="translate(29.151 41.644)" fill="#953142"/><rect width="2.95" height="2.95" transform="translate(34.703 41.644)" fill="#953142"/><rect width="2.95" height="2.95" transform="translate(40.256 41.644)" fill="#953142"/><g transform="translate(25.334 15.617)"><path d="M334.421,42.207a6.187,6.187,0,0,1,3.991-1.388,6.016,6.016,0,0,1,4.512,1.909h0a8.708,8.708,0,0,1,2.082-.347,6.963,6.963,0,0,1,2.6.521,6.078,6.078,0,0,1,5.379-3.3,7.379,7.379,0,0,1,1.909.347V10.8h-21V40.992A8.456,8.456,0,0,1,334.421,42.207Z" transform="translate(-333.9 -10.8)" fill="none" stroke="#953142" stroke-miterlimit="10" stroke-width="1"/></g><path d="M326.858,54.549a4.3,4.3,0,0,1,4.338-4.338h.694c.521-3.3,2.95-5.726,5.9-5.726a6.179,6.179,0,0,1,4.858,2.95V17.417h6.941V1.8H322V55.937h5.032C327.032,55.59,326.858,55.07,326.858,54.549Z" transform="translate(-317.315 -1.8)" fill="none" stroke="#953142" stroke-miterlimit="10" stroke-width="1"/><path d="M355.713,37.117a5.446,5.446,0,0,0,1.215-3.644,6.148,6.148,0,0,0-6.073-6.073,6.289,6.289,0,0,0-5.379,3.3,6.963,6.963,0,0,0-2.6-.521,6.148,6.148,0,0,0-6.073,6.073,2.2,2.2,0,0,0,.174,1.041h18.74Z" transform="translate(-306.434 17.02)" fill="none" stroke="#953142" stroke-miterlimit="10" stroke-width="1"/><path d="M345.869,37.852c0-.347-.174-.694-.174-1.041a6.244,6.244,0,0,1,3.991-5.726,6.3,6.3,0,0,0-4.511-1.909,6.187,6.187,0,0,0-3.991,1.388,5.94,5.94,0,0,0-5.553-4.164c-2.95,0-5.379,2.429-5.9,5.726h-.694a4.3,4.3,0,0,0-4.338,4.338c0,.521.174.868.174,1.388Z" transform="translate(-315.33 16.285)" fill="none" stroke="#953142" stroke-miterlimit="10" stroke-width="1"/></g></svg>