<svg id="icon_time" xmlns="http://www.w3.org/2000/svg" width="19.877" height="19.905" viewBox="0 0 19.877 19.905">
  <path id="Path_14106" data-name="Path 14106" d="M145.938,19.9a9.952,9.952,0,1,1,9.938-9.967A9.953,9.953,0,0,1,145.938,19.9Zm0-18.775a8.809,8.809,0,1,0,8.809,8.809A8.82,8.82,0,0,0,145.938,1.129Z" transform="translate(-136 0)" fill="#fff"/>
  <path id="Path_14107" data-name="Path 14107" d="M173.443,25.557a.707.707,0,0,1-.508-.226L168.9,21.068a.8.8,0,0,1-.2-.48V15.506a.706.706,0,1,1,1.412,0v4.8l3.84,4.066a.707.707,0,0,1-.028.988A.8.8,0,0,1,173.443,25.557Z" transform="translate(-159.468 -10.621)" fill="#fff"/>
</svg>
