<svg xmlns="http://www.w3.org/2000/svg" width="48.702" height="49.214" viewBox="0 0 48.702 49.214"><g transform="translate(0.5 0.555)"><path d="M25.729,4.2v6.858S20.7,11.82,20.7,6.486" transform="translate(10.085 1.591)" fill="none" stroke="#953142" stroke-linecap="round" stroke-linejoin="round" stroke-miterlimit="10" stroke-width="1"/><path d="M27.171,31.49V44.14c0,1.829.3,4.267,3.353,4.267h5.791s.61-3.81-3.353-3.81V31.49c4.572,0,5.791-3.81,5.791-7.011V14.574c9.3,0,9.449-3.2,9.449-4.877s-3.353-3.505-5.791-3.505S42.106.4,34.486.4,25.8,15.945,25.8,15.945H11.321c-4.877,0-7.315-2.743-7.315-6.706S6.291.552,4.767.552.5,2.534.5,9.087,6.139,19.755,6.139,19.755v7.163c0,4.42-4.877,6.706-4.877,11.887v5.487c0,1.981.3,4.267,3.353,4.267h5.791s.61-3.81-3.353-3.81V37.891c3.962,0,8.687-3.353,8.687-6.249h11.43Z" transform="translate(-0.5 -0.4)" fill="none" stroke="#953142" stroke-linecap="round" stroke-linejoin="round" stroke-miterlimit="10" stroke-width="1"/><path d="M25.172,19.3V32.559a3.084,3.084,0,0,1,3.353,3.81H23.8" transform="translate(11.71 9.504)" fill="none" stroke="#953142" stroke-linecap="round" stroke-linejoin="round" stroke-miterlimit="10" stroke-width="1"/><path d="M20.816,20.8c-1.372,2.286-4.877,4.115-7.925,4.115v6.858a3.084,3.084,0,0,1,3.353,3.81H10.453c-2.9,0-3.353-2.286-3.353-4.115V26.134" transform="translate(2.959 10.29)" fill="none" stroke="#953142" stroke-linecap="round" stroke-linejoin="round" stroke-miterlimit="10" stroke-width="1"/><line x2="14.783" y2="14.174" transform="translate(10.668 0.152)" fill="none" stroke="#953142" stroke-linecap="round" stroke-linejoin="round" stroke-miterlimit="10" stroke-width="1"/><rect width="15.24" height="2.286" transform="translate(25.983 13.197) rotate(27.949)" fill="none" stroke="#953142" stroke-linecap="round" stroke-linejoin="round" stroke-miterlimit="10" stroke-width="1"/></g></svg>