<svg xmlns="http://www.w3.org/2000/svg" width="17.263" height="16.416" viewBox="0 0 17.263 16.416">
  <path id="icon_phone" d="M0,3.3A4.036,4.036,0,0,1,1.191.572,2.266,2.266,0,0,1,3.114.014a.808.808,0,0,1,.491.45q.662,1.461,1.249,2.948A.738.738,0,0,1,4.8,4a6.939,6.939,0,0,1-.841,1.124.641.641,0,0,0-.075.891,9.809,9.809,0,0,0,4.9,4.139.583.583,0,0,0,.741-.175c.35-.433.716-.849,1.049-1.291a.6.6,0,0,1,.791-.258c1.008.466,2.015.933,3,1.441a.74.74,0,0,1,.25.591,3.071,3.071,0,0,1-2.548,2.923,4.98,4.98,0,0,1-2.373-.142A13.809,13.809,0,0,1,1.665,7.392,8.3,8.3,0,0,1,.125,4.286C.058,3.961.042,3.628,0,3.3Z" transform="translate(3.031) rotate(13)" fill="#fff"/>
</svg>
