<svg xmlns="http://www.w3.org/2000/svg" width="63.333" height="52.665" viewBox="0 0 63.333 52.665"><g transform="translate(0.5 0.5)"><rect width="62.333" height="8.687" transform="translate(0 35.662)" fill="none" stroke="#953142" stroke-miterlimit="10" stroke-width="1"/><rect width="56.389" height="27.433" transform="translate(2.896 8.382)" fill="none" stroke="#953142" stroke-miterlimit="10" stroke-width="1"/><path d="M146.907,17.1H100.882A5.139,5.139,0,0,0,95.7,22.282v5.182h56.389V22.282A5.139,5.139,0,0,0,146.907,17.1Z" transform="translate(-92.804 8.199)" fill="none" stroke="#953142" stroke-miterlimit="10" stroke-width="1"/><path d="M146.907,17.1H100.882A5.139,5.139,0,0,0,95.7,22.282v5.182h56.389V22.282A5.139,5.139,0,0,0,146.907,17.1Z" transform="translate(-92.804 8.199)" fill="none" stroke="#953142" stroke-miterlimit="10" stroke-width="1"/><path d="M134.55,19.825V14.186a2.344,2.344,0,0,0-2.286-2.286H117.786a2.344,2.344,0,0,0-2.286,2.286v5.639Z" transform="translate(-82.429 5.474)" fill="none" stroke="#953142" stroke-miterlimit="10" stroke-width="1"/><path d="M119.55,19.825V14.186a2.344,2.344,0,0,0-2.286-2.286H102.786a2.344,2.344,0,0,0-2.286,2.286v5.639Z" transform="translate(-90.289 5.474)" fill="none" stroke="#953142" stroke-miterlimit="10" stroke-width="1"/><rect width="3.505" height="7.315" transform="translate(2.896 44.349)" fill="none" stroke="#953142" stroke-miterlimit="10" stroke-width="1"/><rect width="3.505" height="7.315" transform="translate(55.932 44.349)" fill="none" stroke="#953142" stroke-miterlimit="10" stroke-width="1"/><path d="M103.525,8.882V4.462a3.962,3.962,0,1,0-7.925,0v4.42Z" transform="translate(-92.857 -0.5)" fill="none" stroke="#953142" stroke-miterlimit="10" stroke-width="1"/><path d="M131.462.5A4.035,4.035,0,0,0,127.5,4.462v4.42h7.773V4.462A3.718,3.718,0,0,0,131.462.5Z" transform="translate(-76.14 -0.5)" fill="none" stroke="#953142" stroke-miterlimit="10" stroke-width="1"/></g></svg>