<svg xmlns="http://www.w3.org/2000/svg" width="21.992" height="19.302" viewBox="0 0 21.992 19.302">
  <path id="icon_message_color" d="M21.055.05C17.26,1.555,5.026,6.551.4,8.457A.709.709,0,0,0,.446,9.786l5.284,1.681,11.93-7.126c.08-.048.144.048.08.112L8.613,13.021S8.4,16.9,8.229,17.841a.586.586,0,0,0,.448-.144l2.946-2.434c1.729,1.281,3.827,2.834,5.172,3.827a1.1,1.1,0,0,0,1.729-.673C19.31,14.366,21.28,4.261,21.936.8A.654.654,0,0,0,21.055.05Z" transform="translate(0.041 -0.002)" fill="#582931"/>
</svg>
