<svg id="icon_date" xmlns="http://www.w3.org/2000/svg" width="18.765" height="18.765" viewBox="0 0 18.765 18.765">
  <g id="Group_10481" data-name="Group 10481" transform="translate(3.305)">
    <path id="Path_14108" data-name="Path 14108" d="M13.759,4.051h0A1.365,1.365,0,0,1,12.4,2.692V1.359A1.365,1.365,0,0,1,13.759,0h0a1.365,1.365,0,0,1,1.359,1.359V2.719A1.36,1.36,0,0,1,13.759,4.051Z" transform="translate(-12.4 0)" fill="#fff"/>
    <path id="Path_14109" data-name="Path 14109" d="M49.059,4.051h0A1.365,1.365,0,0,1,47.7,2.692V1.359A1.365,1.365,0,0,1,49.059,0h0a1.365,1.365,0,0,1,1.359,1.359V2.719A1.36,1.36,0,0,1,49.059,4.051Z" transform="translate(-38.291 0)" fill="#fff"/>
  </g>
  <g id="Group_10485" data-name="Group 10485" transform="translate(3.278 8.103)">
    <g id="Group_10482" data-name="Group 10482" transform="translate(3.385)">
      <rect id="Rectangle_1979" data-name="Rectangle 1979" width="2.052" height="1.892" fill="#fff"/>
      <rect id="Rectangle_1980" data-name="Rectangle 1980" width="2.052" height="1.892" transform="translate(3.385)" fill="#fff"/>
      <rect id="Rectangle_1981" data-name="Rectangle 1981" width="2.052" height="1.892" transform="translate(6.744)" fill="#fff"/>
    </g>
    <g id="Group_10483" data-name="Group 10483" transform="translate(0 3.092)">
      <rect id="Rectangle_1982" data-name="Rectangle 1982" width="2.052" height="1.892" fill="#fff"/>
      <rect id="Rectangle_1983" data-name="Rectangle 1983" width="2.052" height="1.892" transform="translate(3.385)" fill="#fff"/>
      <rect id="Rectangle_1984" data-name="Rectangle 1984" width="2.052" height="1.892" transform="translate(6.77)" fill="#fff"/>
      <rect id="Rectangle_1985" data-name="Rectangle 1985" width="2.052" height="1.892" transform="translate(10.129)" fill="#fff"/>
    </g>
    <g id="Group_10484" data-name="Group 10484" transform="translate(0 6.184)">
      <rect id="Rectangle_1986" data-name="Rectangle 1986" width="2.052" height="1.892" fill="#fff"/>
      <rect id="Rectangle_1987" data-name="Rectangle 1987" width="2.052" height="1.892" transform="translate(3.385)" fill="#fff"/>
      <rect id="Rectangle_1988" data-name="Rectangle 1988" width="2.052" height="1.892" transform="translate(6.77)" fill="#fff"/>
      <rect id="Rectangle_1989" data-name="Rectangle 1989" width="2.052" height="1.892" transform="translate(10.129)" fill="#fff"/>
    </g>
  </g>
  <path id="Path_14110" data-name="Path 14110" d="M16.046,7.5v.746a1.946,1.946,0,0,1-3.892,0V7.5H6.637v.746a1.94,1.94,0,0,1-1.946,1.946h0A1.94,1.94,0,0,1,2.745,8.246V7.5H0V24.266H18.765V7.5Zm1.413,15.539H1.306v-10.9H17.459Z" transform="translate(0 -5.501)" fill="#fff"/>
</svg>
