<svg xmlns="http://www.w3.org/2000/svg" width="15.33" height="10.612" viewBox="0 0 15.33 10.612">
  <path id="icon_email" d="M15.33.45V.414c0-.018-.006-.042-.006-.06V.348c-.006-.018-.012-.036-.018-.06V.276C15.3.258,15.288.24,15.282.222L15.276.216c-.012-.018-.018-.03-.03-.048L15.24.162A.14.14,0,0,0,15.2.12c-.012,0-.018,0-.018-.006S15.15.09,15.138.078h-.006a.243.243,0,0,0-.054-.03c-.006,0-.006-.006-.012-.006a.418.418,0,0,0-.114-.036H14.94C14.922.006,14.9,0,14.88,0H.45A.185.185,0,0,0,.39.006H.378a.4.4,0,0,0-.12.036C.252.042.252.048.246.048A.335.335,0,0,0,.2.078H.192A.261.261,0,0,0,.15.114L.138.126A.261.261,0,0,0,.1.168L.1.174C.084.192.072.2.06.222V.228a.558.558,0,0,0-.03.06V.3C.024.318.018.336.012.36V.366C.006.378.006.4,0,.414V10.2c0,.018.006.042.006.06v.006c.006.018.012.036.018.06v.012c.006.018.018.036.024.054l.006.006c.012.018.018.03.03.048l.006.006a.14.14,0,0,0,.042.042c.006.006.006.006.012.006s.03.024.042.036H.192a.243.243,0,0,0,.054.03c.006,0,.006.006.012.006a.418.418,0,0,0,.114.036H.384c.018,0,.042.006.06.006h14.43a.185.185,0,0,0,.06-.006h.012a.362.362,0,0,0,.114-.036c.006,0,.006-.006.012-.006s.036-.018.054-.03h.006a.261.261,0,0,0,.042-.036c.006,0,.006-.006.012-.006l.042-.042.006-.006a.131.131,0,0,0,.03-.048l.006-.006a.213.213,0,0,0,.024-.054v-.012c.006-.018.012-.036.018-.06v-.006a.2.2,0,0,0,.006-.06V.45ZM13.7.9,7.665,6.32,1.627.9Zm.726.558v7.7L10.144,5.306ZM5.186,5.306.9,9.154v-7.7ZM1.627,9.712l4.232-3.8L7.365,7.263a.343.343,0,0,0,.126.078.453.453,0,0,0,.354,0,.48.48,0,0,0,.126-.078L9.478,5.912l4.232,3.8Z" fill="#fff"/>
</svg>
