<svg id="icon_wa_color" xmlns="http://www.w3.org/2000/svg" width="38.586" height="38.815" viewBox="0 0 38.586 38.815">
  <path id="Path_22" data-name="Path 22" d="M7.2,45.215,9.94,34.94a18.509,18.509,0,0,1-2.512-9.361A19.179,19.179,0,1,1,26.607,44.758a20.786,20.786,0,0,1-9.133-2.283Zm10.959-6.621.685.457a16.94,16.94,0,0,0,7.991,2.283A15.542,15.542,0,0,0,42.362,25.807,15.891,15.891,0,0,0,26.836,10.053,15.4,15.4,0,0,0,11.31,25.579a14.163,14.163,0,0,0,2.283,7.991l.457.685-1.6,5.708Z" transform="translate(-7.2 -6.4)" fill="#953142"/>
  <path id="Path_23" data-name="Path 23" d="M28.011,22.421a3.827,3.827,0,0,0-2.74-.685c-.685.228-1.142,1.37-1.6,2.055-.228.228-.457.228-.913.228a12.759,12.759,0,0,1-6.165-5.251,1.037,1.037,0,0,1,0-1.142A4.971,4.971,0,0,0,17.736,15.8a3.07,3.07,0,0,0-.457-2.055c-.457-.913-.685-2.055-1.6-2.512a1.771,1.771,0,0,0-2.283.457,4.7,4.7,0,0,0-1.6,3.881,1.711,1.711,0,0,0,.228,1.142,13.967,13.967,0,0,0,1.142,2.74c.457.685.685,1.142,1.142,1.827a15.045,15.045,0,0,0,5.251,4.795,20.876,20.876,0,0,0,3.2,1.6,7.8,7.8,0,0,0,3.881.685,4.39,4.39,0,0,0,3.425-2.512,2.9,2.9,0,0,0,.228-1.37C30.066,23.335,28.7,22.878,28.011,22.421Z" transform="translate(-1.297 -0.502)" fill="#953142" fill-rule="evenodd"/>
</svg>
