<svg xmlns="http://www.w3.org/2000/svg" width="25.378" height="24.132" viewBox="0 0 25.378 24.132">
  <path id="icon_phone_color" d="M0,4.856A5.933,5.933,0,0,1,1.751.841,3.331,3.331,0,0,1,4.578.021,1.188,1.188,0,0,1,5.3.682Q6.274,2.83,7.137,5.015a1.084,1.084,0,0,1-.086.869A10.2,10.2,0,0,1,5.815,7.537a.942.942,0,0,0-.11,1.31,14.42,14.42,0,0,0,7.2,6.084.856.856,0,0,0,1.089-.257c.514-.637,1.053-1.249,1.542-1.9A.884.884,0,0,1,16.7,12.4c1.481.686,2.962,1.371,4.407,2.118a1.089,1.089,0,0,1,.367.869,4.514,4.514,0,0,1-3.746,4.3,7.321,7.321,0,0,1-3.489-.208A20.3,20.3,0,0,1,2.448,10.867,12.208,12.208,0,0,1,.184,6.3C.086,5.823.061,5.334,0,4.856Z" transform="translate(4.456) rotate(13)" fill="#582931"/>
</svg>
