<svg xmlns="http://www.w3.org/2000/svg" width="63.313" height="62.115" viewBox="0 0 63.313 62.115"><g transform="translate(0.5 0.5)"><path d="M268.057,23.974h-55.22a3.523,3.523,0,0,1-3.537-3.537h0a3.523,3.523,0,0,1,3.537-3.537h55.22a3.523,3.523,0,0,1,3.537,3.537h0A3.3,3.3,0,0,1,268.057,23.974Z" transform="translate(-209.3 12.773)" fill="none" stroke="#953142" stroke-miterlimit="10" stroke-width="1"/><rect width="16.9" height="21.42" transform="translate(31.835 26.333)" fill="none" stroke="#953142" stroke-miterlimit="10" stroke-width="1"/><rect width="16.9" height="4.716" transform="translate(31.835 43.036)" fill="none" stroke="#953142" stroke-miterlimit="10" stroke-width="1"/><path d="M253.647,40.937H223.973a9.256,9.256,0,0,1-8.843-6.681L211.2,20.5h55.22l-3.93,13.756A9.439,9.439,0,0,1,253.647,40.937Z" transform="translate(-207.466 16.248)" fill="none" stroke="#953142" stroke-miterlimit="10" stroke-width="1"/><g transform="translate(14.345 56.989)"><rect width="8.45" height="4.127" fill="none" stroke="#953142" stroke-miterlimit="10" stroke-width="1"/><rect width="8.45" height="4.127" transform="translate(25.35)" fill="none" stroke="#953142" stroke-miterlimit="10" stroke-width="1"/></g><path d="M213.6,31.277V9.071A7.254,7.254,0,0,1,220.871,1.8h0a7.254,7.254,0,0,1,7.271,7.271" transform="translate(-205.15 -1.8)" fill="none" stroke="#953142" stroke-miterlimit="10" stroke-width="1"/><g transform="translate(14.345 7.271)"><path d="M230.57,11.985a6.485,6.485,0,1,0-12.97,0Z" transform="translate(-215.635 -5.5)" fill="none" stroke="#953142" stroke-miterlimit="10" stroke-width="1"/><path d="M231.535,12.83h-12.97a1.969,1.969,0,0,1-1.965-1.965h0A1.969,1.969,0,0,1,218.565,8.9h12.97a1.969,1.969,0,0,1,1.965,1.965h0A1.969,1.969,0,0,1,231.535,12.83Z" transform="translate(-216.6 -2.219)" fill="none" stroke="#953142" stroke-miterlimit="10" stroke-width="1"/></g></g></svg>