<svg id="icon_user" xmlns="http://www.w3.org/2000/svg" width="21.869" height="26" viewBox="0 0 21.869 26">
  <path id="Path_5912" data-name="Path 5912" d="M13.6,11a5.5,5.5,0,1,1,5.5-5.5A5.476,5.476,0,0,1,13.6,11Zm0-9.64A4.172,4.172,0,0,0,9.39,5.5a4.141,4.141,0,1,0,8.282,0A4.1,4.1,0,0,0,13.6,1.358Z" transform="translate(-2.601)" fill="#582931"/>
  <path id="Path_5913" data-name="Path 5913" d="M21.248,30.657a.641.641,0,0,1-.679-.679V23.054c0-3.191-1.426-5.227-4.956-7.06A6.529,6.529,0,0,1,11,17.962a6.261,6.261,0,0,1-4.616-1.969c-3.6,1.833-5.023,3.937-5.023,7.06v6.924a.641.641,0,0,1-.679.679A.641.641,0,0,1,0,29.978V23.054c0-4.888,3.326-7.128,6.178-8.486a.648.648,0,0,1,.815.2,5.018,5.018,0,0,0,3.937,1.9,4.921,4.921,0,0,0,3.937-1.9.648.648,0,0,1,.815-.2c2.919,1.426,6.178,3.6,6.178,8.486v6.924A.562.562,0,0,1,21.248,30.657Z" transform="translate(0 -4.657)" fill="#582931"/>
</svg>
