<svg xmlns="http://www.w3.org/2000/svg" width="22.536" height="15.6" viewBox="0 0 22.536 15.6">
  <path id="icon_email_color" d="M22.536.662V.609c0-.026-.009-.062-.009-.088V.512C22.518.485,22.509.459,22.5.424V.406c-.009-.026-.026-.053-.035-.079L22.456.318c-.018-.026-.026-.044-.044-.071L22.4.238a.206.206,0,0,0-.062-.062c-.018,0-.026,0-.026-.009C22.3.15,22.271.132,22.253.115h-.009a.358.358,0,0,0-.079-.044c-.009,0-.009-.009-.018-.009A.615.615,0,0,0,21.98.009h-.018C21.936.009,21.9,0,21.874,0H.662A.272.272,0,0,0,.574.009H.556A.586.586,0,0,0,.379.062C.371.062.371.071.362.071A.493.493,0,0,0,.291.115H.282A.384.384,0,0,0,.221.168L.2.185A.384.384,0,0,0,.15.247L.141.256C.124.282.106.3.088.326V.335A.82.82,0,0,0,.044.424V.441C.035.468.026.494.018.529V.538C.009.556.009.582,0,.609V14.991c0,.026.009.062.009.088v.009c.009.026.018.053.026.088v.018c.009.026.026.053.035.079l.009.009c.018.026.026.044.044.071l.009.009a.206.206,0,0,0,.062.062c.009.009.009.009.018.009.018.018.044.035.062.053H.282a.358.358,0,0,0,.079.044c.009,0,.009.009.018.009a.615.615,0,0,0,.168.053H.565c.026,0,.062.009.088.009H21.865a.272.272,0,0,0,.088-.009h.018a.532.532,0,0,0,.168-.053c.009,0,.009-.009.018-.009.026-.018.053-.026.079-.044h.009a.384.384,0,0,0,.062-.053c.009,0,.009-.009.018-.009l.062-.062.009-.009a.192.192,0,0,0,.044-.071l.009-.009a.313.313,0,0,0,.035-.079v-.018c.009-.026.018-.053.026-.088V15.08a.3.3,0,0,0,.009-.088V.662Zm-2.391.662L11.268,9.291,2.391,1.324Zm1.068.821V13.456L14.912,7.8ZM7.624,7.8l-6.3,5.656V2.144ZM2.391,14.277,8.612,8.691l2.215,1.985a.5.5,0,0,0,.185.115.666.666,0,0,0,.521,0,.706.706,0,0,0,.185-.115l2.215-1.985,6.221,5.585Z" fill="#582931"/>
</svg>
