<svg id="icon_time_color" xmlns="http://www.w3.org/2000/svg" width="21.969" height="22" viewBox="0 0 21.969 22">
  <path id="Path_14106" data-name="Path 14106" d="M146.984,22a11,11,0,1,1,10.984-11.016A11,11,0,0,1,146.984,22Zm0-20.752a9.736,9.736,0,1,0,9.736,9.736A9.749,9.749,0,0,0,146.984,1.248Z" transform="translate(-136 0)" fill="#953142"/>
  <path id="Path_14107" data-name="Path 14107" d="M173.943,26.689a.781.781,0,0,1-.562-.25l-4.462-4.712a.885.885,0,0,1-.218-.53V15.58a.78.78,0,0,1,1.56,0v5.3l4.244,4.494a.782.782,0,0,1-.031,1.092A.885.885,0,0,1,173.943,26.689Z" transform="translate(-158.496 -10.182)" fill="#953142"/>
</svg>
