<svg xmlns="http://www.w3.org/2000/svg" width="16.9" height="17" viewBox="0 0 16.9 17">
  <g id="icon_whatsapp" transform="translate(-7.2 -6.4)">
    <path id="Path_22" data-name="Path 22" d="M7.2,23.4l1.2-4.5a8.107,8.107,0,0,1-1.1-4.1,8.4,8.4,0,1,1,8.4,8.4,9.1,9.1,0,0,1-4-1ZM12,20.5l.3.2a7.42,7.42,0,0,0,3.5,1,6.807,6.807,0,0,0,6.8-6.8A6.96,6.96,0,0,0,15.8,8,6.744,6.744,0,0,0,9,14.8a6.2,6.2,0,0,0,1,3.5l.2.3-.7,2.5Z" fill="#fff"/>
    <path id="Path_23" data-name="Path 23" d="M18.9,16a1.676,1.676,0,0,0-1.2-.3c-.3.1-.5.6-.7.9-.1.1-.2.1-.4.1a5.588,5.588,0,0,1-2.7-2.3.454.454,0,0,1,0-.5,2.177,2.177,0,0,0,.5-.8,1.344,1.344,0,0,0-.2-.9c-.2-.4-.3-.9-.7-1.1a.775.775,0,0,0-1,.2,2.06,2.06,0,0,0-.7,1.7.749.749,0,0,0,.1.5,6.117,6.117,0,0,0,.5,1.2c.2.3.3.5.5.8a6.589,6.589,0,0,0,2.3,2.1,9.143,9.143,0,0,0,1.4.7,3.416,3.416,0,0,0,1.7.3,1.923,1.923,0,0,0,1.5-1.1,1.268,1.268,0,0,0,.1-.6C19.8,16.4,19.2,16.2,18.9,16Z" fill="#fff" fill-rule="evenodd"/>
  </g>
</svg>
