<svg xmlns="http://www.w3.org/2000/svg" width="127" height="168.206" viewBox="0 0 127 168.206"><g transform="translate(-1690 -2347.794)"><text transform="translate(1690 2513)" fill="#fff" font-size="18" font-family="Gotham-Bold, Gotham" font-weight="700" letter-spacing="0.06em"><tspan x="0" y="0">ROOM TOUR</tspan></text><g transform="translate(1693.047 2348)"><circle cx="15.642" cy="15.642" r="15.642" transform="translate(44.634 44.634)" fill="#fff"/><g transform="translate(1 1)"><path d="M52.6,24.1,64.332,35.832,52.6,47.564" transform="translate(53.604 23.445)" fill="none" stroke="#fff" stroke-linecap="round" stroke-linejoin="round" stroke-miterlimit="10" stroke-width="2"/><path d="M13.032,47.564,1.3,35.832,13.032,24.1" transform="translate(-0.683 23.445)" fill="none" stroke="#fff" stroke-linecap="round" stroke-linejoin="round" stroke-miterlimit="10" stroke-width="2"/><path d="M47.564,52.6,35.832,64.332,24.1,52.6" transform="translate(23.445 53.604)" fill="none" stroke="#fff" stroke-linecap="round" stroke-linejoin="round" stroke-miterlimit="10" stroke-width="2"/><path d="M24.1,13.032,35.832,1.3,47.564,13.032" transform="translate(23.445 -0.683)" fill="none" stroke="#fff" stroke-linecap="round" stroke-linejoin="round" stroke-miterlimit="10" stroke-width="2"/><path d="M46.075,1A61.224,61.224,0,0,0,1,46.075" transform="translate(-1 -1)" fill="none" stroke="#fff" stroke-linecap="round" stroke-linejoin="round" stroke-miterlimit="10" stroke-width="2"/><path d="M81.775,46.075A61.224,61.224,0,0,0,36.7,1" transform="translate(36.778 -1)" fill="none" stroke="#fff" stroke-linecap="round" stroke-linejoin="round" stroke-miterlimit="10" stroke-width="2"/><path d="M1,36.7A61.224,61.224,0,0,0,46.075,81.775" transform="translate(-1 36.778)" fill="none" stroke="#fff" stroke-linecap="round" stroke-linejoin="round" stroke-miterlimit="10" stroke-width="2"/><path d="M36.7,81.775A61.224,61.224,0,0,0,81.775,36.7" transform="translate(36.778 36.778)" fill="none" stroke="#fff" stroke-linecap="round" stroke-linejoin="round" stroke-miterlimit="10" stroke-width="2"/></g></g></g></svg>