<svg xmlns="http://www.w3.org/2000/svg" width="30.1" height="30.102" viewBox="0 0 30.1 30.102">
  <g id="social_youtube" transform="translate(-42.1)">
    <path id="Path_6" data-name="Path 6" d="M42.6,22.1V8.1A7.6,7.6,0,0,1,50.2.5H64.1a7.6,7.6,0,0,1,7.6,7.6V22a7.6,7.6,0,0,1-7.6,7.6H50.2A7.45,7.45,0,0,1,42.6,22.1Z" fill="none" stroke="#953142" stroke-miterlimit="10" stroke-width="1"/>
    <path id="Path_7" data-name="Path 7" d="M65,13a3.543,3.543,0,0,0-3.5-3.5h-9A3.543,3.543,0,0,0,49,13v4.2a3.543,3.543,0,0,0,3.5,3.5h9A3.543,3.543,0,0,0,65,17.2Zm-5.2,2.4-4,2c-.2.1-.7,0-.7-.2V13.1c0-.2.5-.3.7-.2L59.7,15C59.8,15.1,59.9,15.3,59.8,15.4Z" fill="#953142"/>
  </g>
</svg>
