<svg xmlns="http://www.w3.org/2000/svg" width="30.1" height="30.102" viewBox="0 0 30.1 30.102">
  <g id="social_twitter" transform="translate(-126.3)">
    <path id="Path_4" data-name="Path 4" d="M126.8,22.1V8.1A7.6,7.6,0,0,1,134.4.5h13.9a7.6,7.6,0,0,1,7.6,7.6V22a7.6,7.6,0,0,1-7.6,7.6H134.4A7.45,7.45,0,0,1,126.8,22.1Z" fill="none" stroke="#953142" stroke-miterlimit="10" stroke-width="1"/>
    <path id="Path_5" data-name="Path 5" d="M149.5,10.1a9.83,9.83,0,0,1-1.6.5c.3,0,.6-.5.8-.7a3.128,3.128,0,0,0,.5-1V8.8h-.1a6.191,6.191,0,0,1-1.9.7h-.1l-.2-.2-.9-.6a2.2,2.2,0,0,0-1.4-.2,2.836,2.836,0,0,0-1.3.4,3.179,3.179,0,0,0-1.7,2.2,3.3,3.3,0,0,0,0,1.4c0,.1,0,.1-.1.1a10.482,10.482,0,0,1-6.6-3.3c-.1-.1-.1-.1-.2,0a3.186,3.186,0,0,0,.6,3.9c.1.1.3.2.4.4a4.016,4.016,0,0,1-1.3-.4c-.1,0-.1,0-.1.1v.4a3.286,3.286,0,0,0,2.1,2.7.6.6,0,0,0,.4.1,2.292,2.292,0,0,1-1.2,0c-.1,0-.1,0-.1.1a3.482,3.482,0,0,0,2.6,2.2h.4a3.839,3.839,0,0,1-1.8.9,6.261,6.261,0,0,1-2.7.3h-.2v.1l.6.3a6.7,6.7,0,0,0,1.8.7,9.786,9.786,0,0,0,9.4-2.2,9.873,9.873,0,0,0,2.6-7.2.215.215,0,0,1,.2-.2,7.994,7.994,0,0,0,1.3-1.3c-.1.1-.1,0-.2-.1Z" fill="#953142"/>
  </g>
</svg>
