<svg id="social_facebook" xmlns="http://www.w3.org/2000/svg" width="30.1" height="30.102" viewBox="0 0 30.1 30.102">
  <g id="Group_6" data-name="Group 6">
    <path id="Path_12" data-name="Path 12" d="M20.8,19.8l.6-4.2H17.3V12.9a2.128,2.128,0,0,1,2.4-2.3h1.8V7a22.015,22.015,0,0,0-3.3-.3c-3.3,0-5.5,2-5.5,5.7v3.2H9.1v4.2h3.7v9.9h4.6V19.8Z" fill="#953142"/>
  </g>
  <path id="Path_13" data-name="Path 13" d="M.5,22.1V8.1A7.6,7.6,0,0,1,8.1.5H22a7.6,7.6,0,0,1,7.6,7.6V22A7.6,7.6,0,0,1,22,29.6H8.1A7.45,7.45,0,0,1,.5,22.1Z" fill="none" stroke="#953142" stroke-miterlimit="10" stroke-width="1"/>
</svg>
