<svg xmlns="http://www.w3.org/2000/svg" width="30.1" height="30.1" viewBox="0 0 30.1 30.1">
  <g id="social_instagram" transform="translate(-84.2 -0.1)">
    <path id="Path_8" data-name="Path 8" d="M84.7,22.1V8.2A7.6,7.6,0,0,1,92.3.6h13.9a7.6,7.6,0,0,1,7.6,7.6V22.1a7.6,7.6,0,0,1-7.6,7.6H92.3A7.6,7.6,0,0,1,84.7,22.1Z" fill="none" stroke="#953142" stroke-miterlimit="10" stroke-width="1"/>
    <g id="Group_4" data-name="Group 4">
      <path id="Path_9" data-name="Path 9" d="M103.9,9.6a.945.945,0,0,0-1,1,1,1,0,0,0,2,0A1.075,1.075,0,0,0,103.9,9.6Z" fill="#953142"/>
      <path id="Path_10" data-name="Path 10" d="M99.4,10.9a4.2,4.2,0,1,0,4.2,4.2A4.225,4.225,0,0,0,99.4,10.9Zm0,6.9a2.7,2.7,0,1,1,2.7-2.7A2.689,2.689,0,0,1,99.4,17.8Z" fill="#953142"/>
      <path id="Path_11" data-name="Path 11" d="M102.7,23.7H95.9a5.121,5.121,0,0,1-5.1-5.1V11.8a5.121,5.121,0,0,1,5.1-5.1h6.8a5.121,5.121,0,0,1,5.1,5.1v6.8A5,5,0,0,1,102.7,23.7ZM95.9,8.2a3.478,3.478,0,0,0-3.5,3.5v6.8A3.478,3.478,0,0,0,95.9,22h6.8a3.478,3.478,0,0,0,3.5-3.5V11.7a3.478,3.478,0,0,0-3.5-3.5Z" fill="#953142"/>
    </g>
  </g>
</svg>
