<svg xmlns="http://www.w3.org/2000/svg" width="150" height="126.5" viewBox="0 0 150 126.5"><g transform="translate(-153 -1791.5)"><text transform="translate(228 1884)" fill="#953142" font-size="22" font-family="Gotham-Bold, Gotham" font-weight="700" letter-spacing="0.06em"><tspan x="-74.25" y="0">World-Class</tspan><tspan x="-55.792" y="30">Facilities</tspan></text><g transform="translate(196 1793)"><path d="M679.943,1253.7H659.832a17.341,17.341,0,0,0-17.332,17.332v7.425h54.776v-7.425A17.326,17.326,0,0,0,679.943,1253.7Z" transform="translate(-637.626 -1248.143)" fill="none" stroke="#953142" stroke-linecap="round" stroke-linejoin="round" stroke-miterlimit="10" stroke-width="3"/><line x2="64.524" transform="translate(0 30.292)" fill="none" stroke="#953142" stroke-linecap="round" stroke-linejoin="round" stroke-miterlimit="10" stroke-width="3"/><path d="M738.5,1234.834a5.535,5.535,0,0,1,11.069,0" transform="translate(-711.761 -1229.3)" fill="none" stroke="#953142" stroke-linecap="round" stroke-linejoin="round" stroke-miterlimit="10" stroke-width="3"/><path d="M682.063,1397.3H627.31l-4.51,11.5h63.772Z" transform="translate(-622.413 -1359.037)" fill="none" stroke="#953142" stroke-linecap="round" stroke-linejoin="round" stroke-miterlimit="10" stroke-width="3"/><g transform="translate(14.508 30.292)"><line y2="7.972" fill="none" stroke="#953142" stroke-linecap="round" stroke-linejoin="round" stroke-miterlimit="10" stroke-width="3"/><line y2="7.972" transform="translate(35.53)" fill="none" stroke="#953142" stroke-linecap="round" stroke-linejoin="round" stroke-miterlimit="10" stroke-width="3"/></g></g></g></svg>