<svg xmlns="http://www.w3.org/2000/svg" width="152" height="109.87" viewBox="0 0 152 109.87"><g transform="translate(-1030 -1778.13)"><text transform="translate(1106 1884)" fill="#953142" font-size="22" font-family="Gotham-Bold, Gotham" font-weight="700" letter-spacing="0.06em"><tspan x="-75.24" y="0">Pet Friendly</tspan></text><g transform="translate(1070 1779.632)"><path d="M2095.957,657.108c2.563-2.468,5.163-4.9,7.536-7.535a26.555,26.555,0,0,0,6.15-11.237c.285-1.12.456-2.259.664-3.4V630.8a3.489,3.489,0,0,1-.133-.475,19.886,19.886,0,0,0-1.955-7.156,18.519,18.519,0,0,0-15.716-10.743,21.718,21.718,0,0,0-15.052,3.948c-1.31.93-2.468,2.05-3.72,3.113a1.447,1.447,0,0,0-.152-.133,21.884,21.884,0,0,0-19.835-6.738,17.591,17.591,0,0,0-13.192,8.693c-4.233,7.213-4.233,14.672-.531,22.113a40.727,40.727,0,0,0,9.946,12.148c3.682,3.227,18.7,15.3,21.752,18.943a2.786,2.786,0,0,0,4.271-.019C2076.787,673.659,2093.243,659.253,2095.957,657.108Z" transform="translate(-2037.307 -612.315)" fill="none" stroke="#953142" stroke-miterlimit="10" stroke-width="3"/><g transform="translate(19.665 14.832)"><path d="M2184.08,779.275c-2.088-.3-4.195-.531-6.282-.911a6.95,6.95,0,0,1-2.259-.968,3.773,3.773,0,0,1-1.708-4.442,22.853,22.853,0,0,1,6.359-10.553c2.657-2.468,5.258-2.468,7.934,0a22.645,22.645,0,0,1,6.4,10.724,3.888,3.888,0,0,1-1.917,4.385,11.149,11.149,0,0,1-4.707,1.367c-1.253.152-2.525.171-3.8.247C2184.1,779.18,2184.08,779.237,2184.08,779.275Z" transform="translate(-2167.435 -747.245)" fill="none" stroke="#953142" stroke-miterlimit="10" stroke-width="3"/><path d="M2247.34,695.133a5.459,5.459,0,0,1-2.505,4.366,3.374,3.374,0,0,1-4.708-.892,5.8,5.8,0,0,1-.019-6.416,4.119,4.119,0,0,1,4.556-1.557C2246.372,691.2,2247.321,692.647,2247.34,695.133Z" transform="translate(-2220.502 -690.456)" fill="none" stroke="#953142" stroke-miterlimit="10" stroke-width="3"/><path d="M2185.792,695.61c-.076,2.145-1.177,3.929-2.81,4.442a3.31,3.31,0,0,1-3.3-.721,5.642,5.642,0,0,1-1.974-5.713,3.656,3.656,0,0,1,3.739-3.018,4.255,4.255,0,0,1,4.1,3.284C2185.678,694.452,2185.716,695.041,2185.792,695.61Z" transform="translate(-2170.609 -690.572)" fill="none" stroke="#953142" stroke-miterlimit="10" stroke-width="3"/><path d="M2276.709,745.809c0-2.544,1.424-4.385,3.587-4.65a3.633,3.633,0,0,1,4.233,3.663,5.3,5.3,0,0,1-2.335,4.783,3.119,3.119,0,0,1-4.518-.835,16.518,16.518,0,0,1-1.177-2.866A2.234,2.234,0,0,1,2276.709,745.809Z" transform="translate(-2250.763 -731.508)" fill="none" stroke="#953142" stroke-miterlimit="10" stroke-width="3"/><path d="M2149.011,745.871a15.537,15.537,0,0,1-1.138,2.866,3.18,3.18,0,0,1-4.65.873,5.537,5.537,0,0,1-2.2-5.523,3.537,3.537,0,0,1,2.828-2.828,3.658,3.658,0,0,1,4.062,1.67A16.646,16.646,0,0,1,2149.011,745.871Z" transform="translate(-2140.908 -731.55)" fill="none" stroke="#953142" stroke-miterlimit="10" stroke-width="3"/></g></g></g></svg>