<svg xmlns="http://www.w3.org/2000/svg" width="150" height="114.5" viewBox="0 0 150 114.5"><g transform="translate(-446 -1773.5)"><text transform="translate(521 1884)" fill="#953142" font-size="22" font-family="Gotham-Bold, Gotham" font-weight="700" letter-spacing="0.06em"><tspan x="-74.063" y="0">Easy Access</tspan></text><g transform="translate(486 1775)"><path d="M899.445,649.282l-13.169,4.473A6.261,6.261,0,0,1,878,647.829V600.084a6.253,6.253,0,0,1,4.243-5.925l17.3-5.887a4.525,4.525,0,0,1,5.983,4.281V640.8A8.97,8.97,0,0,1,899.445,649.282Z" transform="translate(-835.186 -586.246)" fill="none" stroke="#953142" stroke-linecap="round" stroke-linejoin="round" stroke-miterlimit="10" stroke-width="3"/><path d="M828.681,584.969a6.273,6.273,0,0,0-6.269-6.269H789.269A6.273,6.273,0,0,0,783,584.969V591.7" transform="translate(-758.344 -578.7)" fill="none" stroke="#953142" stroke-linecap="round" stroke-linejoin="round" stroke-miterlimit="10" stroke-width="3"/><path d="M783,829.7v6.728a6.273,6.273,0,0,0,6.269,6.269h11.889" transform="translate(-758.344 -781.725)" fill="none" stroke="#953142" stroke-linecap="round" stroke-linejoin="round" stroke-miterlimit="10" stroke-width="3"/><path d="M752.5,675.3l12.022,12.022L752.5,699.345" transform="translate(-733.673 -656.836)" fill="none" stroke="#953142" stroke-linecap="round" stroke-linejoin="round" stroke-miterlimit="10" stroke-width="3"/><line x2="30.849" transform="translate(0 30.486)" fill="none" stroke="#953142" stroke-linecap="round" stroke-linejoin="round" stroke-miterlimit="10" stroke-width="3"/></g></g></svg>