<svg xmlns="http://www.w3.org/2000/svg" width="158" height="144.5" viewBox="0 0 158 144.5"><g transform="translate(-1612 -1773.5)"><text transform="translate(1691 1884)" fill="#953142" font-size="22" font-family="Gotham-Bold, Gotham" font-weight="700" letter-spacing="0.06em"><tspan x="-78.287" y="0">Green Living</tspan><tspan x="-50.974" y="30">Concept</tspan></text><g transform="translate(1653 1775)"><g transform="translate(1.005 0)"><g transform="translate(52.545)"><path d="M1859.267,12.076c0-.121.02-.261.02-.4a6.774,6.774,0,1,0-13.548,0,6.076,6.076,0,0,0,.04.623,9.5,9.5,0,1,0,17.95,6.111A6.9,6.9,0,0,0,1859.267,12.076Z" transform="translate(-1841.9 -4.9)" fill="none" stroke="#953142" stroke-linecap="round" stroke-linejoin="round" stroke-miterlimit="10" stroke-width="3"/><line y2="22.815" transform="translate(10.855 6.654)" fill="none" stroke="#953142" stroke-linecap="round" stroke-linejoin="round" stroke-miterlimit="10" stroke-width="3"/><path d="M1872.7,61.421l4.664,3.96,4.663-4.181" transform="translate(-1866.509 -49.883)" fill="none" stroke="#953142" stroke-linecap="round" stroke-linejoin="round" stroke-miterlimit="10" stroke-width="3"/></g><path d="M1597.867,12.076c0-.121.02-.261.02-.4a6.774,6.774,0,1,0-13.548,0,6.111,6.111,0,0,0,.04.623,9.5,9.5,0,1,0,17.95,6.111A6.845,6.845,0,0,0,1597.867,12.076Z" transform="translate(-1580.5 -4.9)" fill="none" stroke="#953142" stroke-linecap="round" stroke-linejoin="round" stroke-miterlimit="10" stroke-width="3"/><line y2="22.815" transform="translate(10.875 6.654)" fill="none" stroke="#953142" stroke-linecap="round" stroke-linejoin="round" stroke-miterlimit="10" stroke-width="3"/><path d="M1611.4,61.421l4.664,3.96,4.643-4.181" transform="translate(-1605.189 -49.883)" fill="none" stroke="#953142" stroke-linecap="round" stroke-linejoin="round" stroke-miterlimit="10" stroke-width="3"/><g transform="translate(26.272)"><path d="M1728.567,12.076c0-.121.02-.261.02-.4a6.774,6.774,0,1,0-13.548,0,6.111,6.111,0,0,0,.04.623,9.5,9.5,0,1,0,17.95,6.111A6.845,6.845,0,0,0,1728.567,12.076Z" transform="translate(-1711.2 -4.9)" fill="none" stroke="#953142" stroke-linecap="round" stroke-linejoin="round" stroke-miterlimit="10" stroke-width="3"/><line y2="22.815" transform="translate(10.855 6.654)" fill="none" stroke="#953142" stroke-linecap="round" stroke-linejoin="round" stroke-miterlimit="10" stroke-width="3"/><path d="M1742.1,61.421l4.643,3.96,4.663-4.181" transform="translate(-1735.889 -49.883)" fill="none" stroke="#953142" stroke-linecap="round" stroke-linejoin="round" stroke-miterlimit="10" stroke-width="3"/></g></g><g transform="translate(0 29.468)"><path d="M1651.844,151.5a38.172,38.172,0,1,1-76.344,0Z" transform="translate(-1575.5 -151.5)" fill="none" stroke="#953142" stroke-linecap="round" stroke-linejoin="round" stroke-miterlimit="10" stroke-width="3"/><path d="M1799.2,208.193h17.146A38.139,38.139,0,0,0,1825.9,189.8h-23.76a4.933,4.933,0,0,0-4.925,4.925h0a4.916,4.916,0,0,0,1.608,3.638,4.927,4.927,0,0,0-4.523,4.9h0A4.89,4.89,0,0,0,1799.2,208.193Z" transform="translate(-1750.318 -182.101)" fill="none" stroke="#953142" stroke-linecap="round" stroke-linejoin="round" stroke-miterlimit="10" stroke-width="3"/><path d="M1711.708,309.84a37.655,37.655,0,0,0,13.508-2.472,19.42,19.42,0,0,0-27.016,0A37.654,37.654,0,0,0,1711.708,309.84Z" transform="translate(-1673.536 -271.668)" fill="none" stroke="#953142" stroke-miterlimit="10" stroke-width="3"/><path d="M1594.151,214.871h1.95a6.108,6.108,0,0,0,6.111-6.111h0a6.132,6.132,0,0,0-2.633-5.025h.744a5.468,5.468,0,1,0,0-10.935H1580A38.241,38.241,0,0,0,1594.151,214.871Z" transform="translate(-1579.095 -184.498)" fill="none" stroke="#953142" stroke-linecap="round" stroke-linejoin="round" stroke-miterlimit="10" stroke-width="3"/></g></g></g></svg>